HIERARCHY
ROOT Hips
{
	OFFSET 0.00000 0.00000 0.00000
	CHANNELS 6 Xposition Yposition Zposition Zrotation Yrotation Xrotation 
	JOINT LHipJoint
	{
		OFFSET 0 0 0
		CHANNELS 3 Zrotation Yrotation Xrotation
		JOINT LeftUpLeg
		{
			OFFSET 1.28858 -1.83292 1.03970
			CHANNELS 3 Zrotation Yrotation Xrotation
			JOINT LeftLeg
			{
				OFFSET 2.47846 -6.80952 0.00000
				CHANNELS 3 Zrotation Yrotation Xrotation
				JOINT LeftFoot
				{
					OFFSET 2.75274 -7.56311 0.00000
					CHANNELS 3 Zrotation Yrotation Xrotation
					JOINT LeftToeBase
					{
						OFFSET 0.12848 -0.35301 1.68223
						CHANNELS 3 Zrotation Yrotation Xrotation
						End Site
						{
							OFFSET 0.00000 -0.00000 0.87311
						}
					}
				}
			}
		}
	}
	JOINT RHipJoint
	{
		OFFSET 0 0 0
		CHANNELS 3 Zrotation Yrotation Xrotation
		JOINT RightUpLeg
		{
			OFFSET -1.31183 -1.83292 1.03970
			CHANNELS 3 Zrotation Yrotation Xrotation
			JOINT RightLeg
			{
				OFFSET -2.44740 -6.72417 0.00000
				CHANNELS 3 Zrotation Yrotation Xrotation
				JOINT RightFoot
				{
					OFFSET -2.67343 -7.34519 0.00000
					CHANNELS 3 Zrotation Yrotation Xrotation
					JOINT RightToeBase
					{
						OFFSET -0.16914 -0.46471 1.77626
						CHANNELS 3 Zrotation Yrotation Xrotation
						End Site
						{
							OFFSET -0.00000 -0.00000 0.92777
						}
					}
				}
			}
		}
	}
	JOINT LowerBack
	{
		OFFSET 0 0 0
		CHANNELS 3 Zrotation Yrotation Xrotation
		JOINT Spine
		{
			OFFSET 0.01249 2.14252 0.03842
			CHANNELS 3 Zrotation Yrotation Xrotation
			JOINT Spine1
			{
				OFFSET -0.02957 2.14199 -0.03751
				CHANNELS 3 Zrotation Yrotation Xrotation
				JOINT Neck
				{
					OFFSET 0 0 0
					CHANNELS 3 Zrotation Yrotation Xrotation
					JOINT Neck1
					{
						OFFSET -0.01678 1.65709 -0.05476
						CHANNELS 3 Zrotation Yrotation Xrotation
						JOINT Head
						{
							OFFSET 0.07912 1.58331 -0.11843
							CHANNELS 3 Zrotation Yrotation Xrotation
							End Site
							{
								OFFSET 0.03298 1.73940 -0.04271
							}
						}
					}
				}
				JOINT LeftShoulder
				{
					OFFSET 0 0 0
					CHANNELS 3 Zrotation Yrotation Xrotation
					JOINT LeftArm
					{
						OFFSET 3.39556 1.16496 0.08673
						CHANNELS 3 Zrotation Yrotation Xrotation
						JOINT LeftForeArm
						{
							OFFSET 5.23910 -0.00000 -0.00000
							CHANNELS 3 Zrotation Yrotation Xrotation
							JOINT LeftHand
							{
								OFFSET 3.31467 -0.00000 0.00000
								CHANNELS 3 Zrotation Yrotation Xrotation
								JOINT LeftFingerBase
								{
									OFFSET 0 0 0
									CHANNELS 3 Zrotation Yrotation Xrotation
									JOINT LeftHandIndex1
									{
										OFFSET 0.96590 -0.00000 0.00000
										CHANNELS 3 Zrotation Yrotation Xrotation
										End Site
										{
											OFFSET 0.77873 -0.00000 0.00000
										}
									}
								}
								JOINT LThumb
								{
									OFFSET 0 0 0
									CHANNELS 3 Zrotation Yrotation Xrotation
									End Site
									{
										OFFSET 0.79062 -0.00000 0.79062
									}
								}
							}
						}
					}
				}
				JOINT RightShoulder
				{
					OFFSET 0 0 0
					CHANNELS 3 Zrotation Yrotation Xrotation
					JOINT RightArm
					{
						OFFSET -3.27193 1.31331 0.33940
						CHANNELS 3 Zrotation Yrotation Xrotation
						JOINT RightForeArm
						{
							OFFSET -5.30252 -0.00000 0.00000
							CHANNELS 3 Zrotation Yrotation Xrotation
							JOINT RightHand
							{
								OFFSET -3.67875 -0.00000 0.00000
								CHANNELS 3 Zrotation Yrotation Xrotation
								JOINT RightFingerBase
								{
									OFFSET 0 0 0
									CHANNELS 3 Zrotation Yrotation Xrotation
									JOINT RightHandIndex1
									{
										OFFSET -0.59481 -0.00000 0.00000
										CHANNELS 3 Zrotation Yrotation Xrotation
										End Site
										{
											OFFSET -0.47955 -0.00000 0.00000
										}
									}
								}
								JOINT RThumb
								{
									OFFSET 0 0 0
									CHANNELS 3 Zrotation Yrotation Xrotation
									End Site
									{
										OFFSET -0.48687 -0.00000 0.48687
									}
								}
							}
						}
					}
				}
			}
		}
	}
}
MOTION
Frames: 16
Frame Time: .0083333
9.7062 17.4793 29.2361 0 0 0 0 0 0 -21 0 0 0 0 0 0 0 0 0 0 0 0 0 0 21 0 0 0 0 0 0 0 0 0 0 0 0 0 0 0 0 0 0 0 0 0 0 -16 0 0 21 0 0 11 0 0 0 -8 0 0 0 0 0 0 0 0 0 0 0 0 0 0 0 0 0 0 0 0 8 0 0 0 0 0 0 0 0 0 0 0 0 0 0 0 0 0
9.7062 17.4793 29.2361 -176.6140 -3.3962 -177.5780 0.0000 0.0000 0.0000 4.9099 -7.9515 13.4273 0.0439 -1.3522 -3.7183 2.4046 -12.2313 -27.9865 8.3871 16.3967 53.9454 0.0000 0.0000 0.0000 11.1894 15.6038 22.2798 -0.0723 1.7348 -4.7733 -4.7080 -18.7236 -49.8839 -0.6708 -5.2374 14.5868 1.6695 -0.6831 -12.0870 0.1737 -1.2709 -1.0079 -0.9780 -0.6400 5.6912 -1.7053 -2.7047 3.0281 3.1874 -3.6092 -5.9632 1.4129 -1.8880 -2.3117 0.0000 -0.0000 0.0000 -80.9979 2.1424 53.5333 9.8986 -16.5808 -1.4459 -0.0000 0.0000 -5.3015 -0.8292 -11.5676 0.1663 -7.1250 0.0000 -0.0000 -19.3657 18.7209 12.8803 0.0000 -0.0000 0.0000 83.7319 -11.1329 31.3963 -11.9419 19.7175 -2.0827 0.0000 0.0000 19.7393 -9.0210 -43.8888 6.2808 7.1250 -0.0000 -0.0000 42.9185 -69.8620 -27.1663
9.7095 17.4819 29.2350 -176.4140 -3.4475 -177.6050 0.0000 0.0000 0.0000 5.0921 -8.1986 13.4929 0.0429 -1.3374 -3.6777 2.4313 -11.9423 -28.1210 8.2678 16.3127 53.5215 0.0000 0.0000 0.0000 11.5271 15.8202 22.2997 -0.0671 1.6712 -4.5978 -4.7716 -18.5238 -49.9883 -0.6712 -5.2391 14.5918 1.9381 -0.5415 -11.9056 0.0874 -1.1124 -1.1077 -1.1896 -0.5596 5.4827 -1.9115 -2.6456 3.2986 3.8713 -3.5127 -6.2936 1.6816 -1.8652 -2.4617 -0.0000 -0.0000 0.0000 -80.6380 2.0354 54.6392 10.0387 -16.8000 -1.4861 -0.0000 0.0000 -5.3785 -0.9367 -11.1363 0.1809 -7.1250 0.0000 -0.0000 -19.4875 19.1289 12.7822 -0.0000 -0.0000 0.0000 84.0858 -11.6977 32.3378 -12.2598 20.1931 -2.1911 0.0000 0.0000 17.7238 -9.5896 -43.6675 6.6538 7.1250 -0.0000 -0.0000 41.9087 -69.8962 -26.4814
9.7096 17.4815 29.2277 -176.3240 -3.5185 -177.6680 0.0000 0.0000 0.0000 5.1501 -8.3089 13.6322 0.0438 -1.3512 -3.7158 2.4664 -11.5119 -28.2997 8.0892 16.1844 52.8832 0.0000 0.0000 0.0000 11.6154 15.7755 22.3013 -0.0622 1.6089 -4.4259 -4.7627 -18.1762 -49.7439 -0.6876 -5.3014 14.7702 2.0956 -0.4784 -11.7645 0.0133 -1.0438 -1.1891 -1.3417 -0.5256 5.3166 -1.9532 -2.7046 3.6957 4.2370 -3.5822 -6.9264 1.8359 -1.9258 -2.7398 0.0000 0.0000 0.0000 -80.1190 2.0817 56.1766 10.4022 -17.3662 -1.5929 -0.0000 0.0000 -6.6221 -1.3938 -10.9162 0.2640 -7.1250 0.0000 -0.0000 -19.8196 19.3405 12.9285 0.0000 0.0000 0.0000 84.3390 -12.1728 33.3428 -12.5205 20.5806 -2.2820 0.0000 0.0000 15.7530 -10.0507 -43.2977 6.9303 7.1250 -0.0000 -0.0000 40.7113 -69.7866 -25.5459
9.7086 17.4784 29.2213 -176.2120 -3.5767 -177.8070 0.0000 0.0000 0.0000 5.2357 -8.3162 13.8277 0.0447 -1.3643 -3.7519 2.4839 -11.0416 -28.3810 7.8957 16.0420 52.1863 0.0000 0.0000 0.0000 11.6977 15.5907 22.3279 -0.0580 1.5544 -4.2756 -4.7370 -17.8261 -49.4388 -0.6894 -5.3082 14.7897 2.2970 -0.4242 -11.5291 -0.0388 -0.9891 -1.2609 -1.4965 -0.4979 5.1079 -1.9437 -2.8418 4.4165 4.5354 -3.7606 -8.1393 1.9908 -2.0544 -3.2796 0.0000 -0.0000 0.0000 -80.0078 2.0587 55.8912 10.5496 -17.5946 -1.6372 -0.0000 0.0000 -6.4439 -2.1730 -11.4177 0.4304 -7.1250 0.0000 -0.0000 -20.2765 18.8752 13.4950 0.0000 -0.0000 0.0000 84.5293 -12.6590 34.3104 -12.7809 20.9653 -2.3743 0.0000 0.0000 13.7398 -10.4833 -42.8765 7.1760 7.1250 -0.0000 -0.0000 39.4540 -69.6245 -24.5371
9.7079 17.4718 29.2255 -176.0740 -3.1414 -177.8670 0.0000 0.0000 0.0000 5.2165 -8.3676 14.2608 0.0485 -1.4208 -3.9076 2.5971 -10.6847 -29.0233 7.6301 15.8403 51.2190 0.0000 0.0000 0.0000 11.5702 15.4615 21.8887 -0.0492 1.4321 -3.9387 -4.4565 -17.8993 -48.4540 -0.5769 -4.8637 13.5202 2.5143 -0.2226 -11.1955 -0.0318 -0.7430 -1.3957 -1.5681 -0.3805 4.7887 -2.2901 -2.7366 3.8200 4.6504 -3.6243 -7.0560 2.0400 -1.9567 -2.7952 -0.0000 -0.0000 0.0000 -79.9940 2.0992 55.6130 10.7235 -17.8632 -1.6901 -0.0000 0.0000 -6.1139 -2.8998 -11.8581 0.5964 -7.1250 0.0000 -0.0000 -20.7012 18.4667 14.0224 -0.0000 -0.0000 0.0000 84.6257 -13.1118 35.2616 -12.9831 21.2625 -2.4472 0.0000 0.0000 11.8115 -10.8716 -42.3202 7.3678 7.1250 -0.0000 -0.0000 38.0085 -69.3407 -23.3169
9.7066 17.4631 29.2424 -175.9100 -1.7015 -177.8990 0.0000 0.0000 0.0000 4.8997 -8.3716 15.3632 0.0612 -1.5963 -4.3912 2.8956 -10.7755 -30.6921 7.4135 15.6704 50.4213 0.0000 0.0000 0.0000 11.0173 15.3895 20.6590 -0.0311 1.1381 -3.1290 -3.7754 -18.1121 -45.9869 -0.3634 -3.8726 10.7185 2.8515 0.3499 -10.4847 -0.0402 -0.0084 -1.7102 -1.6543 -0.0311 4.0978 -2.3854 -2.7955 3.6167 4.6531 -3.7034 -6.3708 2.0368 -1.9793 -2.5225 -0.0000 -0.0000 0.0000 -79.7769 2.5078 56.5684 11.0485 -18.3625 -1.7912 -0.0000 0.0000 -5.7543 -2.0931 -11.9090 0.4321 -7.1250 0.0000 -0.0000 -20.1639 18.4132 13.6323 -0.0000 -0.0000 0.0000 84.6956 -13.9365 37.3698 -13.3563 21.8071 -2.5842 0.0000 0.0000 7.8175 -11.7611 -41.6540 7.8784 7.1250 -0.0000 -0.0000 35.8739 -69.1229 -21.7173
9.7039 17.4493 29.2196 -175.9760 -3.2585 -177.8200 0.0000 0.0000 0.0000 5.1974 -8.7647 14.5018 0.0529 -1.4846 -4.0831 2.6528 -10.3083 -29.3359 7.3361 15.6085 50.1344 0.0000 0.0000 0.0000 11.9044 15.8823 22.1567 -0.0454 1.3749 -3.7810 -4.4834 -18.0684 -48.6595 -0.4852 -4.4664 12.3927 2.6257 -0.1297 -11.0145 -0.0784 -0.6342 -1.6004 -1.6600 -0.3360 4.4771 -2.2681 -2.9104 3.4869 4.6069 -3.8549 -6.3647 2.0011 -2.0561 -2.4928 0.0000 -0.0000 0.0000 -79.5594 2.3417 57.3428 11.3507 -18.8237 -1.8875 -0.0000 0.0000 -6.1490 -1.7350 -11.7677 0.3539 -7.1250 0.0000 -0.0000 -19.9440 18.5426 13.4016 0.0000 -0.0000 0.0000 84.7941 -14.0314 37.6273 -13.6170 22.1846 -2.6818 0.0000 0.0000 7.4875 -12.4684 -42.6591 8.5216 7.1250 -0.0000 -0.0000 36.9757 -70.1169 -23.2361
9.7007 17.4364 29.2113 -176.1520 -3.8010 -177.7540 0.0000 0.0000 0.0000 5.0325 -9.0199 14.2726 0.0515 -1.4643 -4.0273 2.6236 -9.8928 -29.1693 7.1380 15.4470 49.3945 0.0000 0.0000 0.0000 11.9272 15.9621 22.5928 -0.0510 1.4568 -4.0067 -4.7152 -17.8623 -49.3813 -0.5248 -4.6425 12.8918 2.4248 -0.2730 -11.2781 -0.1608 -0.8011 -1.5135 -1.6615 -0.4154 4.7079 -2.1961 -2.9668 3.4347 4.5637 -3.9313 -6.5790 1.9803 -2.0987 -2.5535 -0.0000 -0.0000 0.0000 -79.3466 2.0982 58.0674 11.6661 -19.3020 -1.9905 -0.0000 0.0000 -6.8210 -1.6871 -11.7346 0.3432 -7.1250 0.0000 -0.0000 -19.9163 18.5733 13.3659 -0.0000 -0.0000 0.0000 84.9246 -14.0620 37.8898 -13.8924 22.5807 -2.7867 0.0000 0.0000 7.0484 -13.2164 -43.8202 9.2360 7.1250 -0.0000 -0.0000 38.5308 -71.2269 -25.2068
9.6977 17.4211 29.2101 -176.0780 -3.7848 -177.7540 0.0000 0.0000 0.0000 4.9770 -9.2843 14.4789 0.0551 -1.5147 -4.1663 2.7071 -10.2115 -29.6432 7.1282 15.4389 49.3576 0.0000 0.0000 0.0000 12.0118 16.0352 22.6601 -0.0514 1.4626 -4.0225 -4.7277 -17.6679 -49.3092 -0.5274 -4.6539 12.9240 2.4783 -0.2480 -11.2728 -0.1083 -0.7776 -1.5189 -1.6331 -0.4037 4.7004 -2.3258 -2.9302 3.4453 4.5343 -3.8906 -6.7357 1.9969 -2.0764 -2.6079 -0.0000 0.0000 0.0000 -79.2769 2.0508 58.5608 12.0203 -19.8351 -2.1092 -0.0000 0.0000 -7.3062 -1.8718 -11.9997 0.3893 -7.1250 0.0000 -0.0000 -20.0070 18.3258 13.5532 -0.0000 0.0000 0.0000 84.8471 -14.1440 37.7544 -13.9346 22.6411 -2.8029 0.0000 0.0000 7.2253 -13.7636 -43.1975 9.5184 7.1250 -0.0000 -0.0000 36.6632 -70.9545 -23.6731
9.6944 17.4030 29.2165 -175.8750 -3.2660 -177.7720 0.0000 0.0000 0.0000 4.9516 -9.4435 14.9997 0.0630 -1.6194 -4.4549 2.8307 -11.2100 -30.3423 7.3464 15.6168 50.1725 0.0000 0.0000 0.0000 12.0087 16.1142 22.2913 -0.0437 1.3494 -3.7108 -4.5144 -17.5792 -48.4700 -0.4421 -4.2664 11.8273 2.7440 -0.0457 -11.1746 -0.0663 -0.5395 -1.5075 -1.7024 -0.2819 4.6668 -2.4598 -2.8576 3.5915 4.6975 -3.7964 -7.1452 2.0870 -2.0406 -2.7724 0.0000 0.0000 0.0000 -79.1610 1.9994 58.7719 12.3681 -20.3544 -2.2287 -0.0000 0.0000 -7.6386 3.1873 -14.2261 -0.7840 -7.1250 0.0000 -0.0000 -16.4483 16.0898 11.7451 0.0000 0.0000 0.0000 84.8255 -14.1345 37.9035 -14.0367 22.7871 -2.8423 0.0000 0.0000 7.2022 -13.6788 -43.2900 9.4745 7.1250 -0.0000 -0.0000 36.9417 -70.9948 -23.8993
9.6896 17.3854 29.2383 -175.8970 -1.8679 -177.7620 0.0000 0.0000 0.0000 4.4163 -9.3650 15.9960 0.0777 -1.7977 -4.9469 3.1559 -11.2815 -32.0901 7.1525 15.4589 49.4486 0.0000 0.0000 0.0000 11.1644 16.0496 21.0854 -0.0287 1.0930 -3.0047 -3.9665 -17.3576 -46.2357 -0.3086 -3.5712 9.8734 2.8893 0.4357 -10.8195 -0.1261 0.0997 -1.5492 -1.7507 0.0337 4.4574 -2.3743 -2.8305 3.6765 4.5987 -3.7614 -7.2823 2.0440 -2.0245 -2.8387 0.0000 -0.0000 0.0000 -79.0137 1.9521 58.8538 12.6859 -20.8253 -2.3404 -0.0000 0.0000 -7.9417 -2.4327 -11.7990 0.4977 -7.1250 0.0000 -0.0000 -20.4012 18.5191 13.7640 0.0000 -0.0000 0.0000 84.9354 -14.0630 37.9288 -14.0773 22.8451 -2.8580 0.0000 0.0000 7.1552 -13.2994 -43.5640 9.2524 7.1250 -0.0000 -0.0000 37.9064 -71.0682 -24.6365
9.6849 17.3662 29.2411 -176.1010 -1.9588 -177.7420 0.0000 0.0000 0.0000 4.1051 -9.5130 16.0736 0.0800 -1.8247 -5.0214 3.2431 -10.3719 -32.5514 6.7198 15.0913 47.8063 0.0000 0.0000 0.0000 11.1848 16.5431 21.6480 -0.0350 1.2083 -3.3222 -4.1851 -17.2266 -47.0024 -0.3715 -3.9149 10.8374 2.7114 0.4263 -10.8059 -0.2236 0.1144 -1.5522 -1.7499 0.0392 4.4472 -2.0719 -3.0128 2.8369 4.3211 -4.0010 -6.3424 1.8581 -2.1226 -2.3674 0.0000 -0.0000 0.0000 -78.9048 1.9257 58.9824 12.9816 -21.2602 -2.4466 -0.0000 0.0000 -8.2070 -2.6043 -12.2208 0.5516 -7.1250 0.0000 -0.0000 -20.4625 18.1247 14.0044 0.0000 -0.0000 0.0000 85.0442 -14.0403 37.8199 -14.0846 22.8555 -2.8609 0.0000 0.0000 7.3335 -13.0331 -43.4670 9.0479 7.1250 -0.0000 -0.0000 37.9856 -70.9064 -24.5636
9.6811 17.3441 29.2434 -176.1010 -2.0376 -177.7390 0.0000 0.0000 0.0000 3.9980 -9.7957 16.2321 0.0827 -1.8553 -5.1059 3.3017 -10.2620 -32.8591 6.6392 15.0204 47.4961 0.0000 0.0000 0.0000 11.5332 17.0818 22.2892 -0.0431 1.3397 -3.6841 -4.3453 -17.3809 -47.7121 -0.3832 -3.9753 11.0071 2.7303 0.4269 -10.8487 -0.2451 0.1149 -1.5109 -1.7830 0.0424 4.5142 -2.2710 -2.8710 3.0437 4.5854 -3.8113 -6.7712 1.9918 -2.0417 -2.5485 0.0000 -0.0000 0.0000 -78.8877 1.8076 59.0705 13.2064 -21.5889 -2.5287 -0.0000 0.0000 -8.2965 -1.8911 -12.3611 0.4050 -7.1250 0.0000 -0.0000 -19.9775 17.9861 13.6918 0.0000 -0.0000 0.0000 85.0761 -13.9775 37.9814 -14.0904 22.8637 -2.8631 0.0000 0.0000 7.4971 -12.8212 -43.4062 8.8884 7.1250 -0.0000 -0.0000 38.0830 -70.7899 -24.5391
9.6797 17.3269 29.2485 -175.9620 -2.0529 -177.8310 0.0000 0.0000 0.0000 4.1565 -9.8141 16.3932 0.0865 -1.8967 -5.2203 3.2743 -10.6364 -32.7101 6.8231 15.1811 48.2021 0.0000 0.0000 0.0000 11.8982 17.2847 22.6887 -0.0476 1.4077 -3.8714 -4.2917 -17.7660 -47.7523 -0.2991 -3.5164 9.7200 2.8087 0.4201 -10.7094 -0.1723 0.1013 -1.4742 -1.7529 0.0381 4.4745 -2.4070 -2.7854 3.2376 4.6916 -3.6998 -7.0861 2.0616 -1.9931 -2.6912 -0.0000 -0.0000 0.0000 -78.9774 1.6940 59.0998 13.4045 -21.8771 -2.6021 -0.0000 0.0000 -8.4663 -1.2186 -12.2140 0.2579 -7.1250 0.0000 -0.0000 -19.5509 18.1163 13.3002 -0.0000 -0.0000 0.0000 85.0287 -13.9192 38.0384 -14.0401 22.7920 -2.8436 0.0000 0.0000 7.7160 -12.5427 -43.1607 8.6532 7.1250 -0.0000 -0.0000 37.8791 -70.5152 -24.1765
9.6800 17.3140 29.2551 -175.9230 -2.0340 -177.9510 0.0000 0.0000 0.0000 4.2918 -9.6286 16.4944 0.0906 -1.9413 -5.3435 3.2123 -10.7736 -32.3854 6.9189 15.2632 48.5667 0.0000 0.0000 0.0000 12.0612 17.3897 22.9936 -0.0507 1.4536 -3.9979 -4.2882 -17.8273 -47.7782 -0.2510 -3.2239 8.9028 2.7606 0.4142 -10.4900 -0.1244 0.1083 -1.4466 -1.6743 0.0416 4.3814 -2.3926 -2.8005 3.6163 4.5172 -3.7295 -7.4799 2.0230 -2.0087 -2.8965 -0.0000 0.0000 0.0000 -79.0451 1.6600 59.0985 13.6603 -22.2470 -2.6982 -0.0000 0.0000 -8.8195 -2.4238 -12.5982 0.5290 -7.1250 0.0000 -0.0000 -20.2993 17.7690 14.0485 -0.0000 0.0000 0.0000 84.9947 -13.8320 38.0160 -13.9643 22.6837 -2.8143 0.0000 0.0000 7.9495 -12.3496 -43.0206 8.4958 7.1250 -0.0000 -0.0000 37.8036 -70.3471 -23.9895
